<?xml version="1.0" encoding="UTF-8"?>
<svg width="752pt" height="752pt" version="1.1" viewBox="0 0 752 752" xmlns="http://www.w3.org/2000/svg">
 <path d="m380.74 598.11c2.8398-0.47266 5.6836-1.4219 8.0508-1.8945l0.94531-1.4219 3.3164 0.47266c0.94531-0.47266 2.3672-0.47266 3.3164-0.94531 1.4219-0.47266 3.3164-0.94531 4.7344-1.4219l0.94531-3.3164 4.7383 0.003907s6.1562-5.6836 6.1562-8.0508c-0.94531-0.94531-1.8945-1.8945-2.3672-2.8398v-10.418c-1.8945-6.1562-3.7891-12.312-6.1562-18.941-3.3164-8.9961-6.6289-17.051-9.9453-25.102-0.47266-2.8398-1.4219-6.1562-1.8945-8.9961-1.8945-7.5781-3.7891-15.156-5.6836-22.258 0-4.7344-0.47266-10.418-0.94531-16.102-0.47266-3.7891-0.94531-7.1055-1.4219-10.418-0.47266-2.3672-0.94531-6.1562-1.8945-10.891-1.8945-8.0508-2.8398-8.9961-3.7891-13.734-0.94531-5.2109-0.47266-10.418 0.47266-19.891 0.47266-3.7891 0.94531-8.9961 1.8945-15.156 0-5.6836 0.47266-11.84 0.94531-18.469 0.47266-5.6836 0.94531-10.891 1.8945-15.629 0 0 1.8945-6.1562 0-16.574-0.47266-31.73-0.94531-63.934-0.47266-97.086 0-34.57 0.94531-68.668 1.8945-101.82-0.47266-3.3164-0.94531-5.6836-1.8945-5.6836-0.94531 0-1.8945 2.3672-2.8398 5.6836 0 0-10.891 112.24-10.418 141.13 0 0-2.8398 0-1.8945 7.5781l-6.6328 84.766s-8.5234 9.4727-5.2109 17.051c0 0-2.8398 20.836-1.4219 26.992-0.46875 0.47266-0.46875 0.94531-0.94531 1.8945-1.4219 2.3672-1.8945 6.1562 0 8.9961 0.94531 1.8945 2.3672 3.3164 3.3164 3.7891-0.94531 3.3164-1.4219 8.0508-1.4219 13.734 0.47266 8.9961 3.3164 15.629 5.2109 19.891 1.8945 14.68 3.3164 29.363 5.2109 44.043 0.94531 9.9453 2.8398 20.836 6.1562 33.152 1.4219 5.2109 2.8398 9.4727 4.7344 13.734 0 1.8945 0 5.2109 1.4219 8.9961 0.47266 1.4219 1.4219 2.3672 1.8945 3.3164v11.836z"/>
</svg>
