<?xml version="1.0" encoding="UTF-8"?>
<svg width="752pt" height="752pt" version="1.1" viewBox="0 0 752 752" xmlns="http://www.w3.org/2000/svg">
 <path d="m514.15 397.24c-10.367 0.09375-20.543 2.7891-29.598 7.8438-3.9648-2.1836-8.1562-3.9219-12.504-5.1797-0.75781-4.6797-0.75781-9.4531 0-14.133 0.42188-2.4922 1.8711-4.6953 3.9961-6.0664 0.39062 0.054687 0.75391 0.23828 1.0352 0.51562 3.9023 4.7812 10.941 5.4961 15.723 1.5898 4.7812-3.9023 5.4961-10.941 1.5938-15.723-5.2617-6.3945-13.5-9.5469-21.684-8.2891-5.4492 1.1641-10.441 3.8789-14.383 7.8164-3.9375 3.9414-6.6523 8.9375-7.8164 14.383-1.1055 5.8086-1.2812 11.75-0.51562 17.613-3.6562 0.29688-7.2734 0.94141-10.805 1.9219v-119.73c0-2.9961-1.2109-5.8633-3.3555-7.9531-2.1445-2.0898-5.0469-3.2266-8.0391-3.1445h-129.72l-30.34-67.484v-0.003906c-1.8164-3.9609-5.7773-6.5039-10.137-6.5117h-29.598c-6.1289 0-11.102 4.9727-11.102 11.102s4.9727 11.098 11.102 11.098h22.199l23.309 51.797-23.309 0.003906c-6.1289 0-11.102 4.9688-11.102 11.098v3.6992h-25.898c-8.8242 0.019532-17.281 3.5352-23.523 9.7773-6.2383 6.2383-9.7539 14.695-9.7734 23.523v133.2c0.019532 8.8242 3.5352 17.281 9.7734 23.523 6.2422 6.2383 14.699 9.7539 23.523 9.7734 6.1328 0 11.102-4.9688 11.102-11.098 0-6.1328-4.9688-11.102-11.102-11.102-6.1289 0-11.098-4.9688-11.098-11.098v-133.2c0-6.1328 4.9688-11.102 11.098-11.102h25.898v273.79c0 6.1328 4.9727 11.102 11.102 11.102h145.55c10.371-0.074219 20.555-2.7734 29.602-7.8438 18.359 10.41 40.836 10.41 59.195 0 9.0547 5.0547 19.23 7.75 29.598 7.8438 41.512 0 75.254-43.363 75.254-96.641 0.003906-53.277-33.738-96.715-75.254-96.715zm-118.39 171.16c-29.598 0-53.055-33.371-53.055-74.441 0-41.066 23.828-74.516 53.055-74.516 3.4062 0.050781 6.7891 0.54688 10.062 1.4805-17.328 20.34-26.621 46.316-26.117 73.035-0.57422 26.668 8.6367 52.621 25.898 72.961-3.2031 0.91016-6.5117 1.4102-9.8438 1.4805zm20.941-277.49v73.996c0 0.37109-0.8125 0.73828-1.1836 1.1836-7.5039 7.7812-18.578 10.992-29.082 8.4336-12.27-2.8242-23.996-7.6523-34.703-14.281l-1.9258-1.0352c-4.8828-2.5898-9.7695-5.1055-14.801-7.3984 0-0.73828-0.44531-1.5547-0.73828-2.293l-26.195-58.605zm-155.39 0h22.199l23.531 52.316h-2.5156c-15.434-1.1016-30.777 3.1562-43.434 12.059zm0 95.012c0.59375-0.52344 1.1172-1.1172 1.5547-1.7773 9.1875-12.887 24.387-20.109 40.18-19.09 12.777 1.9648 25.016 6.5234 35.965 13.391l1.8516 1.0352-0.003907 0.003907c12.848 7.8633 26.934 13.492 41.66 16.648 3.5469 0.60938 7.1328 0.92969 10.73 0.96094 7.9883 0.023437 15.887-1.6641 23.16-4.957v9.0273c-6.6875-2.5469-13.781-3.875-20.941-3.9219-41.512 0-75.254 43.363-75.254 96.715-0.46094 27.398 9.3906 53.969 27.602 74.441h-86.504zm170.42 175.07-0.73828-0.51953c-17.242-12.285-29.082-37-29.082-66.598s11.84-54.094 29.082-66.598l0.73828-0.51953 1.7773-1.1836 0.88672-0.59375v0.007812c6.1992-3.7734 13.309-5.7969 20.57-5.8477 8.3438 0.027344 16.477 2.6133 23.309 7.4023l0.66406 0.44531c17.242 12.285 29.082 37.367 29.082 66.598 0 29.23-11.84 54.02-29.082 66.598l-0.66406 0.44531v-0.003906c-6.7422 4.9688-14.898 7.6484-23.273 7.6484s-16.531-2.6797-23.27-7.6484zm82.434 7.3984-0.003906 0.003906c-3.3789-0.046875-6.7383-0.54297-9.9883-1.4805 17.289-20.332 26.551-46.277 26.047-72.961 0.48828-26.703-8.7734-52.668-26.047-73.035 3.25-0.9375 6.6094-1.4336 9.9883-1.4805 29.598 0 53.055 33.445 53.055 74.516 0.003907 41.066-23.75 74.441-53.055 74.441z"/>
</svg>
